<svg xmlns="http://www.w3.org/2000/svg" xmlns:xlink="http://www.w3.org/1999/xlink" width="127.902" height="46.189" viewBox="0 0 127.902 46.189">
  <defs>
    <linearGradient id="linear-gradient" x1="0.431" y1="1.004" x2="0.65" y2="-0.011" gradientUnits="objectBoundingBox">
      <stop offset="0" stop-color="#eae6f5"/>
      <stop offset="0.79" stop-color="#fff"/>
      <stop offset="1" stop-color="#fff"/>
    </linearGradient>
    <linearGradient id="linear-gradient-2" x1="0.256" y1="1.482" x2="0.957" y2="0.051" gradientUnits="objectBoundingBox">
      <stop offset="0" stop-color="#00794f"/>
      <stop offset="0.63" stop-color="#00a869"/>
      <stop offset="0.9" stop-color="#39edd7"/>
      <stop offset="1" stop-color="#39edd7"/>
    </linearGradient>
    <linearGradient id="linear-gradient-3" x1="-0.823" y1="-0.143" x2="1.526" y2="1.025" gradientUnits="objectBoundingBox">
      <stop offset="0" stop-color="#285843"/>
      <stop offset="0.63" stop-color="#00a56a"/>
      <stop offset="0.98" stop-color="#39edd7"/>
      <stop offset="1" stop-color="#39edd7"/>
    </linearGradient>
  </defs>
  <g id="Üst_Bar" data-name="Üst Bar" transform="translate(-150.049 -53)">
    <g id="Layer_2" data-name="Layer 2" transform="translate(150.049 53.06)">
      <g id="Layer_1" data-name="Layer 1" transform="translate(0 -0.06)">
        <path id="Path_383" data-name="Path 383" d="M41.372,25.45V44.356c0,1.47-1.12,1.176-1.552.75-.964-1.006-2.94-2.687-5.292-2.687-1.8,0-3.393,1.047-4.951,1.8a18.339,18.339,0,0,1-8.556,1.911h-.335A20.676,20.676,0,0,1,0,25.45V20.628a20.687,20.687,0,1,1,41.374,0Z" transform="translate(0 0.06)" fill="#285843"/>
        <path id="Path_384" data-name="Path 384" d="M3.83,24.742v4.822A19.553,19.553,0,0,0,23.389,49.111h.347a17.209,17.209,0,0,0,8.068-1.8c1.764-.853,3.408-1.911,5.439-1.911a8.689,8.689,0,0,1,5.707,2.646v-23.3a19.562,19.562,0,0,0-39.105,0" transform="translate(-2.704 -4.054)" fill="url(#linear-gradient)"/>
        <path id="Path_385" data-name="Path 385" d="M30.21,129.4c0-.368,5.757-.667,12.861-.667s12.864.294,12.864.667-5.757.653-12.849.653-12.861-.294-12.861-.667" transform="translate(-21.327 -90.862)" fill="#002c45" fillRule="evenodd" opacity="0.15"/>
        <path id="Path_386" data-name="Path 386" d="M43.073,9.491a.92.92,0,0,1,.156-.509c.244-.356.135-.018.135.135a.62.62,0,0,0,1.238,0c0-.153-.109-.491.135-.135a.882.882,0,0,1,.156.509.906.906,0,0,1-.588.847c-.035,0-.068.026,0,.085a.447.447,0,0,1,.132.318.112.112,0,0,0,.038.109.785.785,0,0,1-.038,1.261c-.065.047-.079.035-.041.123a.471.471,0,0,1,.038.182.412.412,0,0,1-.029.159c0,.026-.035.053.044.112a.785.785,0,0,1,.318.632,1.139,1.139,0,0,1,0,.141.171.171,0,0,0,.024.147L54.049,28.08a.341.341,0,0,1-.082.532l-.706.415a.509.509,0,0,0-.253.473V42.9a.5.5,0,0,0,.238.476l.72.412a.341.341,0,0,1,.082.532,111.018,111.018,0,0,1-20.114,0,.341.341,0,0,1,.082-.532l.735-.42a.5.5,0,0,0,.241-.473v-13.4a.509.509,0,0,0-.247-.476L34,28.6a.341.341,0,0,1-.082-.532L43.185,13.6a.171.171,0,0,0,.026-.147.762.762,0,0,1,0-.141.785.785,0,0,1,.318-.632c.079-.059.056-.085.044-.112a.476.476,0,0,1-.029-.159.47.47,0,0,1,.038-.182c.038-.088.024-.076-.041-.123a.785.785,0,0,1-.035-1.253.112.112,0,0,0,.038-.109.447.447,0,0,1,.132-.318c.056-.059.024-.071,0-.085a.911.911,0,0,1-.588-.847M31.835,30.461v-.938H31.5v-.191h.882v.191h-.32v.938Zm.709,0V29.332h.341l.2.77.2-.77h.344v1.129h-.221v-.882l-.223.882h-.221l-.221-.882v.882Z" transform="translate(-22.238 -6.213)" fill="#285843" fillRule="evenodd"/>
        <path id="Path_387" data-name="Path 387" d="M52.235,26.93a.418.418,0,0,0-.37.221L43.52,40.573c-.1.182-.132.4.165.335.77-.176,1.561-.332,2.376-.462a.788.788,0,0,0,.662-.538l3.064-6.86c.171-.368.273-.294.171.05L48.08,39.641c-.094.344,0,.535.35.5.923-.088,1.87-.147,2.831-.173.447,0,.5-.153.515-.588,0,0,.176-3.875.379-6.339.182-2.255.368-1.958.529,0,.2,2.467.376,6.324.376,6.324.021.435.068.588.515.588.961.026,1.908.085,2.831.173.344.035.444-.156.35-.5l-1.882-6.542c-.1-.356,0-.418.171-.05l3.07,6.874a.788.788,0,0,0,.662.538c.814.129,1.605.294,2.376.462.294.068.265-.153.165-.335L52.973,27.151a.418.418,0,0,0-.37-.221Z" transform="translate(-30.674 -18.994)" fill="url(#linear-gradient-2)"/>
        <path id="Path_388" data-name="Path 388" d="M48.12,76.023a13.23,13.23,0,0,0-1.735.52.42.42,0,0,0-.294.42V89.78a.385.385,0,0,0,.279.423q.842.168,1.747.294c.323.047.35-.162.35-.359V76.455c0-.215,0-.444-.223-.444a.61.61,0,0,0-.115,0m11.99.444v13.69c0,.2.026.406.353.359.588-.088,1.176-.185,1.744-.294a.385.385,0,0,0,.294-.423V76.964a.42.42,0,0,0-.294-.42,13.23,13.23,0,0,0-1.747-.52.588.588,0,0,0-.115,0c-.232,0-.223.229-.223.444M53.186,75.4a29.536,29.536,0,0,0-3.44.323.441.441,0,0,0-.382.494V90.3a.356.356,0,0,0,.309.4c1.161.123,2.379.2,3.634.235.467,0,.515-.212.515-.55V75.976a.523.523,0,0,0-.588-.573h-.044m1.555.57V90.38c0,.338.047.562.515.55,1.255-.032,2.473-.112,3.634-.235a.356.356,0,0,0,.309-.4V76.217a.441.441,0,0,0-.382-.494,29.536,29.536,0,0,0-3.44-.323h-.041a.523.523,0,0,0-.588.573" transform="translate(-32.537 -53.209)" fill="url(#linear-gradient-3)"/>
        <path id="Path_389" data-name="Path 389" d="M48.392,78.6c-.864.168-1.658.356-2.373.544V76.972a.423.423,0,0,1,.294-.42,13.265,13.265,0,0,1,1.758-.52c.35-.079.338.185.338.429Zm5.381-.641a34.852,34.852,0,0,0-4.457.473V76.226a.441.441,0,0,1,.382-.494,29.528,29.528,0,0,1,3.443-.323.534.534,0,0,1,.632.57Zm5.378.235a31.1,31.1,0,0,0-4.457-.265V75.979c0-.294.132-.588.635-.57a29.537,29.537,0,0,1,3.44.323.441.441,0,0,1,.382.494Zm3.3.635c-.8-.2-1.591-.368-2.376-.5V76.464c0-.244,0-.509.338-.429a13.232,13.232,0,0,1,1.735.52.42.42,0,0,1,.294.42Z" transform="translate(-32.488 -53.218)" fill="#002c45" opacity="0.15"/>
        <path id="Path_390" data-name="Path 390" d="M205.7,54V49l-3.043-8.392h2.088l1.914,6.063h.1l1.914-6.063h2.076l-3.046,8.4v5Zm-8.968-10.12v3.693h3.081V43.879a1.382,1.382,0,0,0-.459-1.032,1.541,1.541,0,0,0-1.073-.441,1.573,1.573,0,0,0-1.091.441,1.382,1.382,0,0,0-.459,1.032M201.807,54h-1.993V49.486h-3.081V54h-1.991V44.052a3.422,3.422,0,0,1,1.032-2.508,3.32,3.32,0,0,1,2.508-1.053,3.414,3.414,0,0,1,2.49,1.053,3.464,3.464,0,0,1,1.035,2.508ZM186.715,42.482V40.609h7.057v1.873h-2.529V54h-1.991V42.482Zm-6.022,1.4v3.693h3.084V43.879a1.376,1.376,0,0,0-.462-1.032,1.541,1.541,0,0,0-1.07-.441,1.561,1.561,0,0,0-1.091.441,1.376,1.376,0,0,0-.462,1.032M185.768,54h-1.991V49.486h-3.084V54h-2V44.052a3.414,3.414,0,0,1,1.035-2.508,3.308,3.308,0,0,1,2.508-1.053,3.408,3.408,0,0,1,2.487,1.053,3.452,3.452,0,0,1,1.035,2.508ZM172,42.482V46.3h1.552a1.405,1.405,0,0,0,1.032-.441,1.5,1.5,0,0,0,.4-1.053v-.835a1.5,1.5,0,0,0-.412-1.064,1.405,1.405,0,0,0-1.032-.441ZM177.253,54h-2.085l-2.108-5.8H172V54h-1.991V40.609h3.543a3.264,3.264,0,0,1,2.449,1.011,3.467,3.467,0,0,1,.976,2.508v.547a3.4,3.4,0,0,1-.706,2.2,2.6,2.6,0,0,1-.632.612,4.347,4.347,0,0,1-.588.365l1.111,3.1.294.806.294.782q.418,1.176.517,1.47M162.94,43.879v3.693h3.084V43.879a1.382,1.382,0,0,0-.459-1.032,1.547,1.547,0,0,0-2.164,0,1.388,1.388,0,0,0-.462,1.032M168.015,54h-1.991V49.486H162.94V54h-1.991V44.052a3.414,3.414,0,0,1,1.035-2.508,3.314,3.314,0,0,1,2.508-1.053,3.408,3.408,0,0,1,2.487,1.053,3.452,3.452,0,0,1,1.035,2.508Zm-10.826-13.39h2.126l-2.72,6.419,1.647,3.484q.191.379.844,1.8l.42.882c.05.118.118.265.2.45a3.74,3.74,0,0,0,.182.373h-2.2l-2.7-5.81h-.9V54h-2.011V40.609h2.011v5.7h.747l1.176-2.852.588-1.452Zm70.566-12.867v4.19h4.022v-4.19a1.841,1.841,0,0,0-.588-1.376,2.038,2.038,0,0,0-2.834,0,1.852,1.852,0,0,0-.588,1.376m5.325,10.314h-1.341V33.176H227.74v4.881H226.4V27.916a3.364,3.364,0,0,1,3.349-3.367,3.383,3.383,0,0,1,3.34,3.367Zm-9.741-3.214V27.857a1.849,1.849,0,0,0-.588-1.376,2.014,2.014,0,0,0-1.432-.573h-2V36.813h2a2.017,2.017,0,0,0,1.417-.588,1.87,1.87,0,0,0,.588-1.394m1.341-6.813v6.689a3.364,3.364,0,0,1-3.346,3.349h-3.352V24.664h3.352a3.394,3.394,0,0,1,3.346,3.367m-8.821-3.367V38.057h-1.341V27.113h-.076l-2.411,4.819h-1.32l-2.4-4.819h-.076V38.057h-1.341V24.664h1.57l2.94,5.91,2.908-5.91ZM204.777,38.057h-1.341V24.664h1.341Zm-7.057.056a3.4,3.4,0,0,1-2.755-3.311v-.764h1.341v.935a1.849,1.849,0,0,0,.588,1.376,2.058,2.058,0,0,0,2.855,0,1.794,1.794,0,0,0,.632-1.376V34.84a2.429,2.429,0,0,0-.809-1.72,6.726,6.726,0,0,0-.882-.747l-.479-.365-.479-.362a9.226,9.226,0,0,1-1.838-1.626,3.643,3.643,0,0,1-.823-2.3,3,3,0,0,1,.938-2.2,3.308,3.308,0,0,1,4.7.018,3.19,3.19,0,0,1,1.008,2.373v.764h-1.341v-.938a1.85,1.85,0,0,0-.588-1.376,1.97,1.97,0,0,0-1.417-.573,1.841,1.841,0,0,0-1.379.573,1.876,1.876,0,0,0-.588,1.376,2.528,2.528,0,0,0,.823,1.782,9.951,9.951,0,0,0,.87.744l.476.365.5.365A10.717,10.717,0,0,1,200.9,32.6a3.414,3.414,0,0,1,.823,2.2,3.19,3.19,0,0,1-.994,2.373,3.234,3.234,0,0,1-1.935.959,1.523,1.523,0,0,1-.382.726,1.47,1.47,0,0,1-1.014.382h-.556v-.9h.441a.444.444,0,0,0,.438-.229m-9.723-10.37v4.19h4.019v-4.19a1.849,1.849,0,0,0-.588-1.376,2.038,2.038,0,0,0-2.834,0A1.841,1.841,0,0,0,188,27.742m5.36,10.314h-1.341V33.176h-4.028v4.881h-1.341V27.916A3.364,3.364,0,0,1,190,24.549a3.4,3.4,0,0,1,3.352,3.367ZM179.579,25.908v4.784h2.008a1.814,1.814,0,0,0,1.358-.588,1.946,1.946,0,0,0,.556-1.376v-.882a1.952,1.952,0,0,0-.556-1.376,1.764,1.764,0,0,0-1.358-.573Zm4.019,8.935v-.959a1.849,1.849,0,0,0-.588-1.358,1.958,1.958,0,0,0-1.435-.588h-2v4.881h2.008A2.011,2.011,0,0,0,183,36.231a1.861,1.861,0,0,0,.588-1.394m1.244-6.813v.535a3.147,3.147,0,0,1-1.341,2.755,3.155,3.155,0,0,1,1.438,2.737v.656a3.367,3.367,0,0,1-3.352,3.349h-3.337V24.664h3.349a3.064,3.064,0,0,1,2.317.994,3.252,3.252,0,0,1,.938,2.373M176.13,38.057h-1.341V24.664h1.341Zm-3.422-13.393V38.057h-1.32V32.009L167.4,26.6h-.076V38.063h-1.32v-13.4H167.5l3.822,5.069h.079V24.664Zm-14.054,3.078v4.19h4.019v-4.19a1.841,1.841,0,0,0-.588-1.376,2.035,2.035,0,0,0-2.831,0,1.841,1.841,0,0,0-.588,1.376m5.36,10.314h-1.353V33.176h-4.019v4.881h-1.341V27.916a3.364,3.364,0,0,1,3.349-3.367,3.4,3.4,0,0,1,3.352,3.367Zm-11.946,0V33.082L149,24.664h1.376l2.317,6.677h.076l2.317-6.677h1.379l-3.055,8.418v4.975Z" transform="translate(-105.19 -17.313)" fill="#285843" fillRule="evenodd"/>
      </g>
    </g>
  </g>
</svg>
